<?xml version="1.0" standalone="no"?>
<!DOCTYPE svg PUBLIC "-//W3C//DTD SVG 20010904//EN"
 "http://www.w3.org/TR/2001/REC-SVG-20010904/DTD/svg10.dtd">
<svg version="1.0" xmlns="http://www.w3.org/2000/svg"
 width="528.000000pt" height="560.000000pt" viewBox="0 0 528.000000 560.000000"
 preserveAspectRatio="xMidYMid meet">

<g transform="translate(0.000000,560.000000) scale(0.100000,-0.100000)"
fill="#000000" stroke="none">
<path d="M2355 5553 c-213 -32 -419 -157 -540 -328 -56 -79 -80 -128 -114
-233 l-28 -86 -138 -33 c-363 -87 -672 -215 -909 -376 -108 -73 -278 -240
-325 -320 -81 -138 -113 -274 -93 -403 24 -155 87 -268 227 -409 159 -161 359
-283 650 -398 125 -49 322 -112 413 -132 31 -6 32 -6 32 30 0 25 -5 37 -17 41
-84 27 -132 64 -166 128 -19 36 -22 60 -25 195 -5 183 2 246 30 291 19 32 21
33 31 14 16 -30 27 -34 106 -34 66 0 72 -2 66 -17 -17 -41 -17 -162 -1 -237
37 -164 177 -308 342 -350 219 -56 432 38 553 244 33 57 52 161 49 265 -3 102
5 124 66 169 39 30 111 28 154 -2 52 -37 65 -74 63 -174 -2 -128 20 -213 79
-301 69 -102 165 -173 276 -201 321 -82 625 169 601 498 -2 39 -8 79 -12 89
-6 15 0 17 66 17 79 0 90 4 106 34 10 19 12 18 31 -14 28 -45 35 -108 30 -291
-3 -135 -6 -159 -25 -195 -34 -64 -82 -101 -165 -128 -13 -4 -18 -16 -18 -41
0 -36 1 -36 33 -30 169 37 478 149 652 238 230 118 460 307 544 450 131 222
131 432 0 654 -52 88 -217 248 -339 329 -243 161 -566 292 -922 374 l-96 22
-7 37 c-12 62 -64 186 -106 251 -82 127 -201 230 -341 294 -141 65 -163 69
-488 71 -162 2 -308 1 -325 -2z m500 -1113 c378 -22 647 -87 765 -187 76 -63
140 -310 140 -540 l0 -72 43 -20 42 -19 -85 -1 c-83 -1 -86 0 -102 27 -49 82
-171 168 -283 197 -100 26 -405 14 -442 -17 -20 -16 -16 -46 8 -58 19 -11 17
-14 -35 -70 -30 -33 -57 -69 -61 -80 -9 -27 -16 -26 -55 15 -80 83 -208 85
-301 5 l-43 -37 -39 59 c-22 33 -50 66 -64 75 l-24 16 21 19 c23 22 26 41 7
56 -37 31 -342 43 -442 17 -112 -29 -234 -115 -283 -197 -16 -27 -19 -28 -102
-27 l-85 1 41 19 41 18 6 129 c10 205 64 411 125 475 136 143 658 228 1207
197z m-656 -727 c70 -36 138 -104 174 -175 122 -241 -21 -520 -293 -570 -117
-22 -254 23 -342 114 -147 151 -153 380 -13 543 28 33 34 37 35 19 0 -24 18
-44 40 -44 9 0 32 16 51 36 39 41 89 69 169 96 67 22 106 18 179 -19z m1052
21 c77 -23 139 -57 178 -98 19 -20 42 -36 51 -36 22 0 40 20 40 45 1 17 7 13
35 -20 208 -243 81 -599 -235 -657 -117 -22 -254 23 -342 114 -144 148 -153
362 -23 533 43 56 171 132 226 134 8 1 40 -6 70 -15z"/>
<path d="M2075 3471 c-45 -20 -70 -60 -70 -112 0 -42 5 -53 33 -81 28 -28 39
-33 82 -33 43 0 54 5 82 33 28 28 33 39 33 82 0 42 -5 54 -31 81 -33 33 -92
46 -129 30z"/>
<path d="M3115 3471 c-45 -20 -70 -60 -70 -112 0 -42 5 -53 33 -81 28 -28 39
-33 82 -33 43 0 54 5 82 33 28 28 33 39 33 82 0 42 -5 54 -31 81 -33 33 -92
46 -129 30z"/>
<path d="M2360 2597 c0 -93 95 -213 190 -241 114 -34 206 -12 286 68 50 51 84
120 84 173 l0 23 -280 0 -280 0 0 -23z"/>
<path d="M1935 1624 c-27 -7 -92 -23 -143 -34 -549 -118 -973 -522 -1106
-1057 -34 -135 -46 -243 -46 -400 l0 -133 2001 0 2001 0 -5 178 c-8 275 -47
441 -155 654 -74 145 -150 248 -276 374 -201 199 -434 322 -736 388 -36 8 -95
22 -133 32 -37 9 -69 15 -72 12 -3 -2 2 -42 10 -88 15 -84 15 -84 -10 -126
-99 -168 -433 -287 -714 -255 -247 29 -451 134 -525 271 -29 54 -30 70 -10
168 8 38 -1 39 -81 16z m2030 -1044 c43 -33 74 -60 69 -61 -5 0 -88 -8 -184
-18 -96 -10 -176 -17 -177 -17 -1 1 0 12 4 24 8 31 148 132 183 132 18 0 53
-20 105 -60z"/>
</g>
</svg>
